<?xml version="1.0" encoding="UTF-8"?>
<svg width="35px" height="19px" viewBox="0 0 35 19" version="1.1" xmlns="http://www.w3.org/2000/svg" xmlns:xlink="http://www.w3.org/1999/xlink">
    <!-- Generator: Sketch 52.4 (67378) - http://www.bohemiancoding.com/sketch -->
    <title>Group 10 Copy</title>
    <desc>Created with Sketch.</desc>
    <g id="Concepts" stroke="none" stroke-width="1" fill="none" fill-rule="evenodd" stroke-linecap="round" stroke-linejoin="round">
        <g id="Bernard-Lagat-Profile" transform="translate(-722.000000, -228.000000)">
            <g id="Bernard-Lagat" transform="translate(443.000000, 113.000000)">
                <g id="Header">
                    <g id="Group-18" transform="translate(281.000000, 109.000000)">
                        <g id="Group-10-Copy" transform="translate(0.000000, 8.000000)">
                            <path d="M1.17744899,3.8902991 C0.714123306,4.65574594 0.429909847,5.1245495 0.324808611,5.29670978 C0.641082415,6.00515618 0.778271016,6.64512938 0.736374416,7.21662936 C0.694477815,7.78812935 0.466927326,8.38075777 0.0537229486,8.99451463 C-0.269334894,10.8780793 0.864615473,11.8198616 3.45557405,11.8198616 C6.04653263,11.8198616 8.61309555,11.9660087 11.1552628,12.2583028 C15.0382361,13.0604738 18.0155223,13.3619715 20.0871212,13.1627958 C26.9386823,12.5040466 30.4760624,10.9815256 31,9.60267893 C26.2115433,7.92717915 18.9940007,5.47683944 15.7595197,3.53295362 C14.1007033,2.53602407 9.91493704,-0.481297557 10.4825243,0.0657532354 C11.0501116,0.612804027 10.4324763,1.21220147 10.964721,2.1049128 C9.92323784,3.01437524 8.33217907,3.8902991 7.1834,3.8902991 C6.03462093,3.8902991 3.43121934,4.07187943 2.30777225,2.1049128 C1.39598268,1.54274697 1.87243751,2.74212884 1.17744899,3.8902991 Z" id="Path" stroke="#050505" stroke-width="2.46126"></path>
                            <path d="M13.2446985,12.6947405 C20.6928023,14.1064254 26.2883194,13.0229933 30.03125,9.44444444 C28.7274038,11.8128951 23.8747363,13.7554734 20.5513285,14.1342996 C18.8667269,14.3263228 16.4311836,13.8464698 13.2446985,12.6947405 Z" id="Path-3" stroke="#000000" stroke-width="2.26746"></path>
                            <path d="M18.4252815,14.0275645 C18.6196503,14.0275645 19.375,14.986887 19.375,16.4279873 C19.9078372,15.6974254 20.7315479,15.1235466 20.1537684,13.7647844 C19.5759889,12.4060223 18.2309127,14.0275645 18.4252815,14.0275645 Z" id="Path-4" stroke="#000000" stroke-width="0.969" fill="#000000"></path>
                            <path d="M23.25,13.1563021 C23.25,13.1563021 24.4726977,14.0847054 24.21875,15.6060127 C24.8469471,14.878828 25.6042054,14.1507763 24.9230228,12.7982956 C24.2418403,11.4458149 23.25,13.1563021 23.25,13.1563021 Z" id="Path-4-Copy" stroke="#000000" stroke-width="0.969" fill="#000000"></path>
                            <path d="M28.0587744,11.436744 C28.0587744,11.436744 28.8590191,12.1877663 28.6014752,13.6925131 C29.1520077,12.9587926 30.015879,12.3485286 29.4799523,11.0366323 C28.9440256,9.72473606 28.0587744,11.436744 28.0587744,11.436744 Z" id="Path-4-Copy-2" stroke="#000000" stroke-width="0.969" fill="#000000" transform="translate(28.853718, 12.117183) rotate(-11.000000) translate(-28.853718, -12.117183) "></path>
                        </g>
                    </g>
                </g>
            </g>
        </g>
    </g>
</svg>