<?xml version="1.0" encoding="UTF-8"?>
<svg width="78px" height="42px" viewBox="0 0 78 42" version="1.1" xmlns="http://www.w3.org/2000/svg" xmlns:xlink="http://www.w3.org/1999/xlink">
    <!-- Generator: Sketch 52.6 (67491) - http://www.bohemiancoding.com/sketch -->
    <title>Nike Zoom Victory 3</title>
    <desc>Created with Sketch.</desc>
    <g id="Icons" stroke="none" stroke-width="1" fill="none" fill-rule="evenodd" stroke-linecap="round" stroke-linejoin="round">
        <g id="Nike-Zoom-Victory-3" transform="translate(3.000000, 3.000000)" stroke="#F67E2C">
            <path d="M2.72100728,8.82469532 C1.65029206,10.5610233 0.993493421,11.6244502 0.750611368,12.0149759 C1.48149936,13.622005 1.7985332,15.0737104 1.70171291,16.3700923 C1.60489262,17.6664742 1.07903838,19.0107835 0.124150206,20.4030202 C-0.62241525,24.6756696 1.99806957,26.8119943 7.98560468,26.8119943 C13.9731398,26.8119943 19.9042981,27.1435121 25.7790797,27.8065476 C34.752376,29.6261802 41.6326888,30.3100929 46.4200179,29.8582859 C62.2535256,28.3639892 70.4281786,24.9103256 71.638964,21.7825709 C60.573155,17.9818926 43.8938882,12.4235793 36.4192149,8.01409827 C32.5857991,5.75267843 22.9127683,-1.09176806 24.2244253,0.149153639 C25.5360823,1.39007534 24.1087676,2.74973938 25.33875,4.77475219 C22.9319509,6.83776296 19.2551186,8.82469532 16.6003656,8.82469532 C13.9456126,8.82469532 7.92932254,9.23658938 5.33311009,4.77475219 C3.22602429,3.49954376 4.32708012,6.22020336 2.72100728,8.82469532 Z" id="Path" stroke-width="5.67940415"></path>
            <path d="M30.6076282,28.7965564 C47.819707,31.9988008 60.7505797,29.5411601 69.4002464,21.4236342 C66.3871435,26.7961917 55.1729476,31.2027068 47.4927704,32.0620304 C43.5997668,32.4976128 37.9713861,31.4091214 30.6076282,28.7965564 Z" id="Path-3" stroke-width="5.23220698"></path>
            <path d="M42.5796155,31.819914 C43.028789,31.819914 44.7743525,33.9960267 44.7743525,37.2649966 C46.0057043,35.607801 47.9092457,34.3060231 46.5740352,31.2238277 C45.2388246,28.1416323 42.1304419,31.819914 42.5796155,31.819914 Z" id="Path-4" stroke-width="2.23598589" fill="#F67E2C"></path>
            <path d="M53.729223,29.8435555 C53.729223,29.8435555 56.5547971,31.9495316 55.9679406,35.4004418 C57.4196628,33.7509073 59.169637,32.0994058 57.5954689,29.0314591 C56.0213008,25.9635125 53.729223,29.8435555 53.729223,29.8435555 Z" id="Path-4-Copy" stroke-width="2.23598589" fill="#F67E2C"></path>
            <path d="M64.5756991,26.3153685 C64.5756991,26.3153685 65.8289652,22.1200647 67.6231789,24.8093106 C69.4173925,27.4985565 67.7268154,29.2313444 66.8014776,31.1034118 C66.7221961,27.6413076 64.5756991,26.3153685 64.5756991,26.3153685 Z" id="Path-4-Copy-2" stroke-width="2.23598589" fill="#F67E2C"></path>
        </g>
    </g>
</svg>