<?xml version="1.0" encoding="UTF-8"?>
<svg width="1065px" height="703px" viewBox="0 0 1065 703" version="1.1" xmlns="http://www.w3.org/2000/svg" xmlns:xlink="http://www.w3.org/1999/xlink">
    <!-- Generator: Sketch 53 (72520) - https://sketchapp.com -->
    <title>Rex</title>
    <desc>Created with Sketch.</desc>
    <g id="Rex" stroke="none" stroke-width="1" fill="none" fill-rule="evenodd" stroke-linecap="round" stroke-linejoin="round">
        <g transform="translate(5.000000, 5.000000)" stroke="#000000">
            <path d="M286,654 L827,654" id="Line" stroke-width="8"></path>
            <path d="M471.383009,406 L452.844842,462.725773 C468.255312,509.939498 484.289141,541.75706 500.946329,558.17846 C500.946329,558.17846 487.764007,579.708447 461.399364,622.76842 L440.646729,622.76842 C415.751656,606.976243 403.30412,606.976243 403.30412,622.76842 C403.30412,622.76842 367,627.276385 367,646.730596 C367,646.730596 392.966126,635.995945 406.074295,642.899797 C399.972801,646.730596 398.55746,665.946122 403.30412,666 C414.237314,650.771117 424.614885,651.808844 429.104391,651.808844 C425.206571,660.433159 425.206571,665.163544 429.104391,666 L500.946329,663.953996 C510.420158,603.187995 528.771382,570.594897 556,566.174705 C545.416904,539.87674 552.416904,510.726629 577,478.724372 L577,406 L471.383009,406 Z" id="Back-leg" stroke-width="9" fill="#F1F8FF"></path>
            <path d="M240.451916,240 C231.634636,247.787375 231.634636,259.459556 240.451916,275.016541 C240.451916,277.046307 237.704821,287.056426 232.210631,305.046898 C217.43824,307.950232 205.7362,307.950232 197.104512,305.046898 C191.540039,299.024839 187.33705,300.433567 184.495545,309.273081 L175.539646,315.364004 L158.103306,315.364004 L154.780765,320.951396 C148.156673,326.508035 147.225417,332.484574 151.986998,338.881011 C151.986998,332.538958 153.519186,328.184501 156.583563,325.817638 L164.917262,328.760035 L180.161882,324.378773 L171.971662,336.243639 L171.971662,342.159205 C166.511515,348.285047 166.511515,353.898645 171.971662,359 C171.971662,354.09078 174.117183,350.150324 178.408227,347.178631 C182.23631,348.40039 184.265416,348.40039 184.495545,347.178631 C185.404593,342.352488 191.128337,332.609666 201.666778,317.950165 L251.693852,333.799337 C248.32335,308.853895 250.64772,293.221871 258.666964,286.903264 C266.686208,280.584657 271.130554,273.731703 272,266.344402 L240.451916,240 Z" id="Back-Arm" stroke-width="9" fill="#F1F8FF"></path>
            <path d="M86,62.9706735 C99.2452546,74.7715559 102.793907,86.5226972 96.6459582,98.2240972 C90.4980092,109.925497 115.28269,106.471415 171,87.861852 L153.375154,51.2914349 L102.524227,47 L86,62.9706735 Z" id="Mouth" stroke-width="9" fill="#F1F8FF"></path>
            <g id="Teeth" transform="translate(18.000000, 53.000000)" fill="#F1F8FF" stroke-width="9">
                <polygon id="Triangle" transform="translate(10.648860, 15.066091) scale(-1, -1) rotate(13.000000) translate(-10.648860, -15.066091) " points="10.7287559 5.83949914 18.799324 24.2232072 2.49839606 24.2926819"></polygon>
                <polygon id="Triangle-Copy-4" transform="translate(26.453623, 50.207319) scale(-1, -1) rotate(172.000000) translate(-26.453623, -50.207319) " points="26.4033863 40.9928678 34.609037 59.4217701 18.2982089 59.3780861"></polygon>
                <polygon id="Triangle-Copy" transform="translate(37.070778, 18.198691) scale(-1, -1) rotate(-7.000000) translate(-37.070778, -18.198691) " points="37.0252358 8.98572606 45.2265886 27.4116557 28.9149678 27.3720799"></polygon>
                <polygon id="Triangle-Copy-2" transform="translate(61.354267, 16.397771) scale(-1, -1) rotate(9.000000) translate(-61.354267, -16.397771) " points="61.4105875 7.1810676 69.5088726 25.5655008 53.1996619 25.6144749"></polygon>
                <polygon id="Triangle-Copy-3" transform="translate(93.955908, 12.403418) scale(-1, -1) rotate(26.000000) translate(-93.955908, -12.403418) " points="94.0995276 3.13717174 102.083936 21.5447764 85.8278797 21.6696633"></polygon>
            </g>
            <path d="M35.0951731,6.94465781 C66.205519,9.21867997 86.1448367,13.5385078 94.9131264,19.9041412 C106.747188,6.63471374 114.609759,0 118.50084,0 C124.337461,0 136.462289,5.7423913 136.462289,5.7423913 C142.517386,0.162761766 151.385765,-0.596429207 163.067427,3.46481838 L176.973049,13.624612 C201.37952,17.989029 215.134177,22.6993869 218.23702,27.7556857 C222.891285,35.3401339 258.184506,106.738964 258.184506,114 C258.184506,121.261036 282.016286,131.878044 286.469987,131.878044 C290.923688,131.878044 306.994522,129.247679 340.312387,122.552179 C373.630252,115.856678 433.563984,155.22004 478.430784,146.686516 C523.297584,138.152992 639.555088,212.05924 677.118138,238.702798 C751.870164,196.886552 1018.27942,456.210247 1051.62144,563.062436 C1084.96346,669.914626 862.766194,698.169203 871.517574,692.81299 C880.268953,687.456777 1055,638.64395 952.614959,536 C902.442533,485.7007 769.267665,423.466494 762.692357,417.476616 C758.308819,413.483364 728.000479,412.23938 671.76734,413.744665 C611.823626,427.492609 564.8046,434.366581 530.710264,434.366581 C496.615927,434.366581 475.125707,432.162436 466.239604,427.754147 C405.193583,381.995807 372.113715,354.9831 367,346.716027 C359.329427,334.315417 283.115801,304.8313 273.431245,298.920005 C266.974875,294.979142 249.665464,267.079779 221.503012,215.221917 C214.167671,190.648079 201.26588,178.361161 182.79764,178.361161 C155.09528,178.361161 115.879592,122.552179 102.424431,122.552179 C93.4543234,122.552179 76.490562,125.660801 51.5331466,131.878044 C37.4454375,126.527554 29.2574642,122.610402 26.9692267,120.126589 C24.6809891,117.642775 21.9018337,112.600579 18.6317605,105 C48.6589671,102.636872 68.1130401,102.039311 76.9939793,103.207319 C80.519624,92.9453098 96.5123436,88.0740268 124.972138,88.5934698 C144.852305,80.4467036 152.489721,75.397311 147.884386,73.4452918 C139.792457,75.397311 132.155041,76.1607091 124.972138,75.7354862 C113.418174,64.2612614 107.201331,57.5436961 106.321609,55.5827902 C105.441887,53.6218844 99.227204,57.7812427 87.6775607,68.0608651 C53.1908561,70.3332868 31.8106259,68.2451382 23.5368703,61.7964192 C21.0076809,59.8251221 7.85270084,70.3547499 5.40381446,68.0608651 C-0.15835914,62.8507477 -11.5703458,3.53362457 35.0951731,6.94465781 Z" id="Body" stroke-width="9" fill="#F1F8FF"></path>
            <path d="M604.138113,292 C569.479453,297.813595 553.181874,358.751639 557.049392,384.085303 C558.859811,395.944209 560.169305,410.594399 578.150422,435.945293 C663.933819,523.18207 694.010127,580.283324 668.379346,607.249053 C658.317496,598.345728 646.374366,605.036397 632.549955,627.32106 C613.608727,631.817674 600.12865,635.76755 600.12865,637.85853 C600.12865,638.488976 602.762452,641.19696 608.030056,645.982483 C600.117132,654.305803 594.631133,661.943299 591.572059,668.89497 L618.095623,655.400134 C627.133998,657.737567 634.400753,660.389845 639.895887,663.356968 C655.533722,653.242956 662.679696,649.556147 661.333809,652.296538 L657.640593,663.356968 L663.35264,675.693705 L668.379346,687 L674.650131,678.15958 L686.344748,672.471619 L694.631678,660.712261 L704.644493,670.763705 L714.896012,673.091606 L726.87917,687 L730.531656,673.091606 L740,664.582321 L714.896012,583.708097 C729.258772,551.810374 736.018373,533.753395 735.174817,529.53716 C734.33126,525.320925 725.891348,522.282882 709.85508,520.423031 C714.720059,491.577126 709.023681,473.273005 692.765947,466.50871 C676.508213,459.744415 676.508213,455.933513 689.178505,424.875812 C717.121391,412.384026 719.600503,383.029248 696.615841,336.811479" id="Front-Leg" stroke-width="9" fill="#F1F8FF"></path>
            <path d="M308.761126,265 C300.428632,265.985969 298.457697,274.710485 297.168673,277.1308 C296.309324,278.744343 302.081321,289.703521 314.484664,310.008335 L299.055037,360.101636 C294.351679,365.315579 292,369.214845 292,371.799434 C292,374.384023 296.163175,379.263903 304.489526,386.439076 L299.055037,396.572209 C312.017427,402.785267 317.09362,408.981573 321.352269,414.329854 C322.718822,416.046057 325.815702,416.439613 330.642908,415.51052 L332.58523,412.468214 C341.955843,413.704929 347.363403,412.626129 348.80791,409.231815 C344.22891,410.526002 339.857807,409.711336 335.694601,406.787818 L331.530571,402.83801 C341.29878,405.693566 347.057893,404.448355 348.80791,399.102377 C346.054746,399.786434 342.196708,399.786434 337.233796,399.102377 L331.530571,394.306101 C337.622686,395.561963 341.186806,396.026298 342.222931,395.699105 C346.778168,394.683864 349.810936,391.128647 348.80791,386.439076 C348.80791,386.439076 343.523594,389.7299 337.233796,389.7299 C333.040597,389.7299 330.266962,386.470992 322.403741,382.045025 C319.937594,372.295868 321.536201,364.981405 327.199561,360.101636 C327.199561,360.101636 312.161043,361.364728 317.502674,351.130536 C321.063761,344.307741 323.987782,337.57885 337.879414,306.783093 C329.859231,294.132536 329.13096,284.949332 335.694601,279.233482" id="Front-Arm" stroke-width="9" fill="#F1F8FF" transform="translate(320.500000, 340.500000) rotate(7.000000) translate(-320.500000, -340.500000) "></path>
            <path d="M159.574827,45.6177712 C155.463248,43.0723773 147.578216,40.8331808 135.91973,38.9001817 C143.676924,32.8236822 149.675311,29.7692596 153.914892,29.7369138" id="Path" stroke-width="9" fill="#F1F8FF" transform="translate(147.747278, 37.677343) rotate(7.000000) translate(-147.747278, -37.677343) "></path>
            <path d="M19,33 C21.2002435,26.3333333 24.5335768,23 29,23" id="Path-2" stroke-width="9" fill="#F1F8FF"></path>
        </g>
    </g>
</svg>