<?xml version="1.0" encoding="UTF-8"?>
<svg width="553px" height="76px" viewBox="0 0 553 76" version="1.1" xmlns="http://www.w3.org/2000/svg" xmlns:xlink="http://www.w3.org/1999/xlink">
    <!-- Generator: Sketch 64 (93537) - https://sketch.com -->
    <title>Group</title>
    <desc>Created with Sketch.</desc>
    <g id="Page-1" stroke="none" stroke-width="1" fill="none" fill-rule="evenodd">
        <g id="Group">
            <path d="M134.5,74 L134.5,42.5 L145.1,42.5 L163.1,74 L175.1,74 L155.3,41.5 C160.366667,40.6333333 164.5,38.6 167.7,35.4 C170.9,32.2 172.5,28 172.5,22.8 C172.5,19.2 171.833333,16.15 170.5,13.65 C169.166667,11.15 167.35,9.13333333 165.05,7.6 C162.75,6.06666667 160.066667,4.95 157,4.25 C153.933333,3.55 150.7,3.2 147.3,3.2 L147.3,3.2 L124.6,3.2 L124.6,74 L134.5,74 Z M145.9,34.2 L134.5,34.2 L134.5,11.6 L146.6,11.6 C148.733333,11.6 150.766667,11.7833333 152.7,12.15 C154.633333,12.5166667 156.316667,13.1333333 157.75,14 C159.183333,14.8666667 160.333333,16.0166667 161.2,17.45 C162.066667,18.8833333 162.5,20.6666667 162.5,22.8 C162.5,24.9333333 162.066667,26.7166667 161.2,28.15 C160.333333,29.5833333 159.15,30.75 157.65,31.65 C156.15,32.55 154.4,33.2 152.4,33.6 C150.4,34 148.233333,34.2 145.9,34.2 L145.9,34.2 Z M198,75.2 C201.6,75.2 204.716667,74.5 207.35,73.1 C209.983333,71.7 212.166667,69.7333333 213.9,67.2 L213.9,67.2 L214.2,67.2 C214.2,69.4666667 214.466667,71.7333333 215,74 L215,74 L223.5,74 C223.233333,72.8666667 223.05,71.4166667 222.95,69.65 C222.85,67.8833333 222.8,66.2 222.8,64.6 L222.8,64.6 L222.8,43.9 C222.8,41.3 222.4,38.8666667 221.6,36.6 C220.8,34.3333333 219.6,32.3666667 218,30.7 C216.4,29.0333333 214.35,27.7166667 211.85,26.75 C209.35,25.7833333 206.4,25.3 203,25.3 C199.133333,25.3 195.516667,25.9333333 192.15,27.2 C188.783333,28.4666667 185.933333,30.2 183.6,32.4 L183.6,32.4 L188.6,38.4 C190.2,36.8 192.183333,35.4833333 194.55,34.45 C196.916667,33.4166667 199.433333,32.9 202.1,32.9 C205.633333,32.9 208.466667,33.75 210.6,35.45 C212.733333,37.15 213.8,39.7666667 213.8,43.3 L213.8,43.3 L213.8,44.6 C209.8,44.6 205.833333,44.7666667 201.9,45.1 C197.966667,45.4333333 194.433333,46.15 191.3,47.25 C188.166667,48.35 185.633333,49.95 183.7,52.05 C181.766667,54.15 180.8,57 180.8,60.6 C180.8,63.3333333 181.35,65.6333333 182.45,67.5 C183.55,69.3666667 184.933333,70.8666667 186.6,72 C188.266667,73.1333333 190.116667,73.95 192.15,74.45 C194.183333,74.95 196.133333,75.2 198,75.2 Z M200.1,67.8 C198.9,67.8 197.733333,67.6833333 196.6,67.45 C195.466667,67.2166667 194.433333,66.8 193.5,66.2 C192.566667,65.6 191.816667,64.8333333 191.25,63.9 C190.683333,62.9666667 190.4,61.8 190.4,60.4 C190.4,58.4 191.066667,56.8 192.4,55.6 C193.733333,54.4 195.416667,53.5 197.45,52.9 C199.483333,52.3 201.75,51.9 204.25,51.7 C206.75,51.5 209.166667,51.4 211.5,51.4 L211.5,51.4 L213.8,51.4 L213.8,53.9 C213.8,57.9 212.616667,61.2166667 210.25,63.85 C207.883333,66.4833333 204.5,67.8 200.1,67.8 Z M260.9,75.3 C264.7,75.3 268.1,74.65 271.1,73.35 C274.1,72.05 276.6,70.2333333 278.6,67.9 L278.6,67.9 L272.3,62.2 C271.033333,63.8 269.416667,65.0666667 267.45,66 C265.483333,66.9333333 263.3,67.4 260.9,67.4 C258.433333,67.4 256.233333,66.9333333 254.3,66 C252.366667,65.0666667 250.733333,63.8166667 249.4,62.25 C248.066667,60.6833333 247.05,58.8666667 246.35,56.8 C245.65,54.7333333 245.3,52.5666667 245.3,50.3 C245.3,48.0333333 245.65,45.8666667 246.35,43.8 C247.05,41.7333333 248.066667,39.9166667 249.4,38.35 C250.733333,36.7833333 252.35,35.5333333 254.25,34.6 C256.15,33.6666667 258.333333,33.2 260.8,33.2 C263.066667,33.2 265.2,33.7166667 267.2,34.75 C269.2,35.7833333 270.7,37.0666667 271.7,38.6 L271.7,38.6 L278.5,33.1 C276.566667,30.5666667 273.95,28.6333333 270.65,27.3 C267.35,25.9666667 264.033333,25.3 260.7,25.3 C257.1,25.3 253.75,25.9 250.65,27.1 C247.55,28.3 244.866667,30 242.6,32.2 C240.333333,34.4 238.566667,37.0333333 237.3,40.1 C236.033333,43.1666667 235.4,46.5666667 235.4,50.3 C235.4,54.1 236.05,57.5333333 237.35,60.6 C238.65,63.6666667 240.433333,66.2833333 242.7,68.45 C244.966667,70.6166667 247.65,72.3 250.75,73.5 C253.85,74.7 257.233333,75.3 260.9,75.3 Z M309.8,75.3 C314,75.3 317.816667,74.5166667 321.25,72.95 C324.683333,71.3833333 327.666667,68.9333333 330.2,65.6 L330.2,65.6 L323.6,60.3 C322.266667,62.3 320.433333,64 318.1,65.4 C315.766667,66.8 313,67.5 309.8,67.5 C307.733333,67.5 305.783333,67.1333333 303.95,66.4 C302.116667,65.6666667 300.5,64.65 299.1,63.35 C297.7,62.05 296.583333,60.5166667 295.75,58.75 C294.916667,56.9833333 294.466667,55.1 294.4,53.1 L294.4,53.1 L332,53.1 C332.066667,52.5666667 332.1,52.0333333 332.1,51.5 L332.1,51.5 L332.1,49.9 C332.1,46.1 331.566667,42.6833333 330.5,39.65 C329.433333,36.6166667 327.916667,34.0333333 325.95,31.9 C323.983333,29.7666667 321.583333,28.1333333 318.75,27 C315.916667,25.8666667 312.766667,25.3 309.3,25.3 C305.833333,25.3 302.6,25.9166667 299.6,27.15 C296.6,28.3833333 294,30.1 291.8,32.3 C289.6,34.5 287.883333,37.15 286.65,40.25 C285.416667,43.35 284.8,46.7333333 284.8,50.4 C284.8,54.1333333 285.433333,57.5333333 286.7,60.6 C287.966667,63.6666667 289.7,66.2833333 291.9,68.45 C294.1,70.6166667 296.733333,72.3 299.8,73.5 C302.866667,74.7 306.2,75.3 309.8,75.3 Z M322.6,46.1 L294.4,46.1 C294.533333,44.2333333 295.016667,42.4833333 295.85,40.85 C296.683333,39.2166667 297.75,37.8 299.05,36.6 C300.35,35.4 301.883333,34.45 303.65,33.75 C305.416667,33.05 307.3,32.7 309.3,32.7 C311.5,32.7 313.416667,33.05 315.05,33.75 C316.683333,34.45 318.05,35.4 319.15,36.6 C320.25,37.8 321.083333,39.2166667 321.65,40.85 C322.216667,42.4833333 322.533333,44.2333333 322.6,46.1 L322.6,46.1 Z M369,74 C372.666667,74 376.116667,73.5833333 379.35,72.75 C382.583333,71.9166667 385.4,70.6833333 387.8,69.05 C390.2,67.4166667 392.1,65.3333333 393.5,62.8 C394.9,60.2666667 395.6,57.3 395.6,53.9 C395.6,51.4333333 395.216667,49.2 394.45,47.2 C393.683333,45.2 392.6,43.4666667 391.2,42 C389.8,40.5333333 388.133333,39.35 386.2,38.45 C384.266667,37.55 382.166667,36.9666667 379.9,36.7 L379.9,36.7 L379.9,36.5 C383.633333,35.5 386.633333,33.6666667 388.9,31 C391.166667,28.3333333 392.3,25.0333333 392.3,21.1 C392.3,17.7 391.65,14.8666667 390.35,12.6 C389.05,10.3333333 387.35,8.5 385.25,7.1 C383.15,5.7 380.766667,4.7 378.1,4.1 C375.433333,3.5 372.766667,3.2 370.1,3.2 L370.1,3.2 L345.7,3.2 L345.7,74 L369,74 Z M368.5,33.1 L355.6,33.1 L355.6,11.5 L366.9,11.5 C371.633333,11.5 375.4,12.3166667 378.2,13.95 C381,15.5833333 382.4,18.3 382.4,22.1 C382.4,24.0333333 382.033333,25.6833333 381.3,27.05 C380.566667,28.4166667 379.566667,29.55 378.3,30.45 C377.033333,31.35 375.55,32.0166667 373.85,32.45 C372.15,32.8833333 370.366667,33.1 368.5,33.1 L368.5,33.1 Z M368,65.6 L355.6,65.6 L355.6,41.5 L368.9,41.5 C374.3,41.5 378.433333,42.4333333 381.3,44.3 C384.166667,46.1666667 385.6,49.2 385.6,53.4 C385.6,55.8 385.083333,57.7833333 384.05,59.35 C383.016667,60.9166667 381.65,62.1666667 379.95,63.1 C378.25,64.0333333 376.35,64.6833333 374.25,65.05 C372.15,65.4166667 370.066667,65.6 368,65.6 L368,65.6 Z M423.1,75.2 C426.7,75.2 429.816667,74.5 432.45,73.1 C435.083333,71.7 437.266667,69.7333333 439,67.2 L439,67.2 L439.3,67.2 C439.3,69.4666667 439.566667,71.7333333 440.1,74 L440.1,74 L448.6,74 C448.333333,72.8666667 448.15,71.4166667 448.05,69.65 C447.95,67.8833333 447.9,66.2 447.9,64.6 L447.9,64.6 L447.9,43.9 C447.9,41.3 447.5,38.8666667 446.7,36.6 C445.9,34.3333333 444.7,32.3666667 443.1,30.7 C441.5,29.0333333 439.45,27.7166667 436.95,26.75 C434.45,25.7833333 431.5,25.3 428.1,25.3 C424.233333,25.3 420.616667,25.9333333 417.25,27.2 C413.883333,28.4666667 411.033333,30.2 408.7,32.4 L408.7,32.4 L413.7,38.4 C415.3,36.8 417.283333,35.4833333 419.65,34.45 C422.016667,33.4166667 424.533333,32.9 427.2,32.9 C430.733333,32.9 433.566667,33.75 435.7,35.45 C437.833333,37.15 438.9,39.7666667 438.9,43.3 L438.9,43.3 L438.9,44.6 C434.9,44.6 430.933333,44.7666667 427,45.1 C423.066667,45.4333333 419.533333,46.15 416.4,47.25 C413.266667,48.35 410.733333,49.95 408.8,52.05 C406.866667,54.15 405.9,57 405.9,60.6 C405.9,63.3333333 406.45,65.6333333 407.55,67.5 C408.65,69.3666667 410.033333,70.8666667 411.7,72 C413.366667,73.1333333 415.216667,73.95 417.25,74.45 C419.283333,74.95 421.233333,75.2 423.1,75.2 Z M425.2,67.8 C424,67.8 422.833333,67.6833333 421.7,67.45 C420.566667,67.2166667 419.533333,66.8 418.6,66.2 C417.666667,65.6 416.916667,64.8333333 416.35,63.9 C415.783333,62.9666667 415.5,61.8 415.5,60.4 C415.5,58.4 416.166667,56.8 417.5,55.6 C418.833333,54.4 420.516667,53.5 422.55,52.9 C424.583333,52.3 426.85,51.9 429.35,51.7 C431.85,51.5 434.266667,51.4 436.6,51.4 L436.6,51.4 L438.9,51.4 L438.9,53.9 C438.9,57.9 437.716667,61.2166667 435.35,63.85 C432.983333,66.4833333 429.6,67.8 425.2,67.8 Z M477.2,75.3 C479.6,75.3 481.933333,75.0333333 484.2,74.5 C486.466667,73.9666667 488.483333,73.0833333 490.25,71.85 C492.016667,70.6166667 493.433333,69.0333333 494.5,67.1 C495.566667,65.1666667 496.1,62.8 496.1,60 C496.1,57.9333333 495.7,56.1333333 494.9,54.6 C494.1,53.0666667 492.983333,51.75 491.55,50.65 C490.116667,49.55 488.433333,48.6333333 486.5,47.9 C484.566667,47.1666667 482.466667,46.5333333 480.2,46 C476.6,45.2 473.9,44.3166667 472.1,43.35 C470.3,42.3833333 469.4,40.9 469.4,38.9 C469.4,37.7666667 469.65,36.8166667 470.15,36.05 C470.65,35.2833333 471.316667,34.65 472.15,34.15 C472.983333,33.65 473.933333,33.2833333 475,33.05 C476.066667,32.8166667 477.133333,32.7 478.2,32.7 C480.6,32.7 482.766667,33.25 484.7,34.35 C486.633333,35.45 488.133333,36.8666667 489.2,38.6 L489.2,38.6 L495.7,33.1 C493.966667,30.5666667 491.516667,28.6333333 488.35,27.3 C485.183333,25.9666667 481.9,25.3 478.5,25.3 C476.233333,25.3 474.033333,25.5833333 471.9,26.15 C469.766667,26.7166667 467.866667,27.5833333 466.2,28.75 C464.533333,29.9166667 463.183333,31.4166667 462.15,33.25 C461.116667,35.0833333 460.6,37.2666667 460.6,39.8 C460.6,42 461.016667,43.85 461.85,45.35 C462.683333,46.85 463.766667,48.1 465.1,49.1 C466.433333,50.1 467.916667,50.8833333 469.55,51.45 C471.183333,52.0166667 472.8,52.5 474.4,52.9 C478.466667,53.8333333 481.55,54.8333333 483.65,55.9 C485.75,56.9666667 486.8,58.6 486.8,60.8 C486.8,62.1333333 486.533333,63.2333333 486,64.1 C485.466667,64.9666667 484.75,65.6666667 483.85,66.2 C482.95,66.7333333 481.95,67.1166667 480.85,67.35 C479.75,67.5833333 478.6,67.7 477.4,67.7 C474.733333,67.7 472.283333,67.0666667 470.05,65.8 C467.816667,64.5333333 466.066667,62.9666667 464.8,61.1 L464.8,61.1 L458.1,66.8 C460.366667,69.6666667 463.216667,71.8 466.65,73.2 C470.083333,74.6 473.6,75.3 477.2,75.3 Z M529.9,75.3 C534.1,75.3 537.916667,74.5166667 541.35,72.95 C544.783333,71.3833333 547.766667,68.9333333 550.3,65.6 L550.3,65.6 L543.7,60.3 C542.366667,62.3 540.533333,64 538.2,65.4 C535.866667,66.8 533.1,67.5 529.9,67.5 C527.833333,67.5 525.883333,67.1333333 524.05,66.4 C522.216667,65.6666667 520.6,64.65 519.2,63.35 C517.8,62.05 516.683333,60.5166667 515.85,58.75 C515.016667,56.9833333 514.566667,55.1 514.5,53.1 L514.5,53.1 L552.1,53.1 C552.166667,52.5666667 552.2,52.0333333 552.2,51.5 L552.2,51.5 L552.2,49.9 C552.2,46.1 551.666667,42.6833333 550.6,39.65 C549.533333,36.6166667 548.016667,34.0333333 546.05,31.9 C544.083333,29.7666667 541.683333,28.1333333 538.85,27 C536.016667,25.8666667 532.866667,25.3 529.4,25.3 C525.933333,25.3 522.7,25.9166667 519.7,27.15 C516.7,28.3833333 514.1,30.1 511.9,32.3 C509.7,34.5 507.983333,37.15 506.75,40.25 C505.516667,43.35 504.9,46.7333333 504.9,50.4 C504.9,54.1333333 505.533333,57.5333333 506.8,60.6 C508.066667,63.6666667 509.8,66.2833333 512,68.45 C514.2,70.6166667 516.833333,72.3 519.9,73.5 C522.966667,74.7 526.3,75.3 529.9,75.3 Z M542.7,46.1 L514.5,46.1 C514.633333,44.2333333 515.116667,42.4833333 515.95,40.85 C516.783333,39.2166667 517.85,37.8 519.15,36.6 C520.45,35.4 521.983333,34.45 523.75,33.75 C525.516667,33.05 527.4,32.7 529.4,32.7 C531.6,32.7 533.516667,33.05 535.15,33.75 C536.783333,34.45 538.15,35.4 539.25,36.6 C540.35,37.8 541.183333,39.2166667 541.75,40.85 C542.316667,42.4833333 542.633333,44.2333333 542.7,46.1 L542.7,46.1 Z" id="RaceBase" fill="#000000" fill-rule="nonzero"></path>
            <path d="M79.772,61 L88.5063291,76 L0,76 L8.734,61 L79.772,61 Z M44.2531646,0 L72.202,48 L16.304,48 L44.2531646,0 Z" id="Combined-Shape" fill="#468DF5"></path>
        </g>
    </g>
</svg>