<?xml version="1.0" encoding="UTF-8"?>
<svg width="38px" height="20px" viewBox="0 0 38 20" version="1.1" xmlns="http://www.w3.org/2000/svg" xmlns:xlink="http://www.w3.org/1999/xlink">
    <!-- Generator: Sketch 52.4 (67378) - http://www.bohemiancoding.com/sketch -->
    <title>Group 10</title>
    <desc>Created with Sketch.</desc>
    <g id="Concepts" stroke="none" stroke-width="1" fill="none" fill-rule="evenodd" stroke-linecap="round" stroke-linejoin="round">
        <g id="Bernard-Lagat-Profile" transform="translate(-451.000000, -228.000000)" stroke="#050505">
            <g id="Bernard-Lagat" transform="translate(443.000000, 113.000000)">
                <g id="Header">
                    <g id="Group-17" transform="translate(10.000000, 111.000000)">
                        <g id="Group-10" transform="translate(0.000000, 6.000000)">
                            <path d="M3.02669804,2.17466576 C3.67416265,3.6234696 3.72961635,4.71821741 3.19305915,5.45890921 C2.65650195,6.199601 2.41017708,8.0418615 2.45408454,10.9856907 L0,11.984077 C2.0363631,14.1154079 4.62106317,15.3515052 7.75410021,15.6923691 C10.8871373,16.033233 13.2805263,16.0570041 14.9342675,15.7636824 C24.0572723,16.5005866 30.7258519,15.5140859 34.9400065,12.8041801 C35.1115925,11.5918538 34.9151167,10.7836363 34.3505791,10.3795276 C28.3390969,9.00080358 25.022614,8.04995946 24.4011306,7.52699518 C23.9796832,7.17235675 21.8275603,6.30472853 18.5473913,4.12348666 C17.5094568,3.43328255 15.7309815,2.058787 13.2119653,0 C12.1610075,0.143906863 11.854628,0.392313232 12.2928266,0.745219107 C12.9501246,1.27457792 13.3113515,2.63335243 13.9277207,3.4971929 C12.7216247,4.37724273 11.2182972,5.85113241 9.88794645,5.85113241 C8.55759567,5.85113241 6.31285257,5.54849293 4.59555856,2.4015721 C3.89162282,2.03891541 3.36866932,1.96327997 3.02669804,2.17466576 Z" id="Path" stroke-width="2.15631"></path>
                            <path d="M2.56110597,11.2 C2.54328456,11.8358187 6.17114899,12.0441041 13.4446993,11.8248563 C18.1084707,12.8772459 25.7623193,15.0248186 35,12.1965216 C35,12.1965216 32.40212,17.1052987 15.1655973,15.629962 C9.02288824,16.6649554 4.02993153,15.5204753 0.186727116,12.1965216 L2.56110597,11.2 Z" id="Path-2" stroke-width="1.69556" fill="#050505"></path>
                        </g>
                    </g>
                </g>
            </g>
        </g>
    </g>
</svg>