<?xml version="1.0" encoding="UTF-8"?>
<svg width="87px" height="43px" viewBox="0 0 87 43" version="1.1" xmlns="http://www.w3.org/2000/svg" xmlns:xlink="http://www.w3.org/1999/xlink">
    <!-- Generator: Sketch 52.6 (67491) - http://www.bohemiancoding.com/sketch -->
    <title>Nike Zoom Pegasus Turbo</title>
    <desc>Created with Sketch.</desc>
    <g id="Icons" stroke="none" stroke-width="1" fill="none" fill-rule="evenodd" stroke-linecap="round" stroke-linejoin="round">
        <g id="Nike-Zoom-Pegasus-Turbo" transform="translate(3.000000, 3.000000)" stroke="#468DF5">
            <path d="M7.02980068,4.98790056 C8.53360022,8.31093513 8.66239685,10.8218926 7.41619054,12.520773 C6.16998424,14.2196534 5.59787076,18.4451359 5.69985011,25.1972206 L0,27.4871595 C4.72965142,32.3756653 10.7328688,35.2108278 18.0096522,35.9926469 C25.2864355,36.7744661 30.8453145,36.8289884 34.6862892,36.156214 C55.8753555,37.846407 71.3637805,35.5837293 81.1515644,29.3681808 C81.5500898,26.5875407 81.0937556,24.7337806 79.7825619,23.8069005 C65.8203097,20.6446039 58.1174556,18.4637097 56.6739999,17.2642179 C55.6951473,16.450805 50.6966325,14.4607781 43.0781208,9.45779432 C40.6674169,7.8747145 36.536735,4.72211639 30.6860749,0 C28.2451231,0.330070549 27.5335268,0.899825356 28.5512859,1.70926442 C30.0779245,2.92342302 30.9169089,6.03996271 32.3484864,8.02130183 C29.547211,10.0398194 26.0555868,13.4203919 22.9657177,13.4203919 C19.8758485,13.4203919 14.6622143,12.7262458 10.6736319,5.50834204 C9.03867264,4.67653813 7.82406224,4.50305764 7.02980068,4.98790056 Z" id="Path" stroke-width="4.97572624"></path>
            <path d="M5.94841779,25.688769 C5.90702584,27.1471083 14.333094,27.6248401 31.2266221,27.1219645 C42.058685,29.5357674 59.8354931,34.4615262 81.2909053,27.9744309 C81.2909053,27.9744309 75.2570761,39.2333988 35.2235751,35.8495074 C20.9565358,38.2234099 9.35990807,35.5983844 0.433691893,27.9744309 L5.94841779,25.688769 Z" id="Path-2" stroke-width="3.91253687" fill="#468DF5"></path>
        </g>
    </g>
</svg>